#!OML:ASF F:\VICON\USERDATA\INSTALL\rory3\rory3.ASF
:FULLY-SPECIFIED
:DEGREES
704
root 2.58575 17.6134 -5.48833 19.9878 -20.8749 -1.45449
lowerback 22.3451 -0.751051 -2.23799
upperback 7.7751 -1.47015 1.31147
thorax -3.87432 -0.804589 3.05586
lowerneck -16.3352 0.373102 -7.56924
upperneck 27.0675 2.31484 1.02135
head 11.4396 0.349689 1.98742
rclavicle -4.77083e-014 3.33958e-014
rhumerus 7.27781 2.6153 -42.3867
rradius 94.2732
rwrist 17.6343
rhand -39.5864 -0.325563
rfingers 7.12502
rthumb -12.569 -29.9275
lclavicle -4.77083e-014 3.33958e-014
lhumerus -18.785 -22.7398 87.4618
lradius 54.8864
lwrist -15.5749
lhand -15.0697 32.2322
lfingers 7.12502
lthumb 11.0975 61.9188
rfemur -45.8228 -7.13733 28.9063
rtibia 32.9806
rfoot -3.58992 -0.731056
rtoes 17.5078
lfemur -39.8 9.05418 -18.5456
ltibia 55.11
lfoot -9.74479 0.463734
ltoes -26.4854
705
root 2.61582 17.5902 -5.579 20.7409 -20.4512 -1.78171
lowerback 22.7463 -0.645746 -2.06413
upperback 7.87234 -1.30311 1.3485
thorax -3.98512 -0.721531 2.96428
lowerneck -16.2526 0.268678 -7.72035
upperneck 27.1079 2.19521 1.06083
head 11.4435 0.285893 2.01069
rclavicle 2.08724e-014 -7.35503e-015
rhumerus 6.4331 5.35487 -44.2695
rradius 93.5389
rwrist 17.9147
rhand -39.1932 -0.52849
rfingers 7.12502
rthumb -12.19 -30.1533
lclavicle 2.08724e-014 -7.35503e-015
lhumerus -18.8995 -22.6828 88.3939
lradius 53.5399
lwrist -16.9587
lhand -14.7121 32.8827
lfingers 7.12502
lthumb 11.4424 62.5505
rfemur -46.8321 -7.22423 29.5186
rtibia 32.8355
rfoot -3.23121 -0.814633
rtoes 17.4905
lfemur -39.8878 9.2476 -18.4973
ltibia 54.2841
lfoot -11.005 0.0890657
ltoes -30.2393
706
root 2.64588 17.572 -5.66958 21.531 -20.0785 -2.01515
lowerback 23.0891 -0.501889 -1.97129
upperback 7.94986 -1.10666 1.30561
thorax -4.08833 -0.623751 2.82238
lowerneck -16.104 0.185025 -7.70878
upperneck 27.0976 2.03056 1.16919
head 11.4158 0.229299 2.02423
rclavicle 3.37934e-014 -1.07344e-014
rhumerus 5.59692 8.04595 -46.1834
rradius 92.5821
rwrist 17.623
rhand -38.6694 -0.918327
rfingers 7.12502
rthumb -11.6849 -30.5725
lclavicle 3.37934e-014 -1.07344e-014
lhumerus -19.0567 -22.7792 89.1271
lradius 52.4086
lwrist -18.1544
lhand -14.4989 33.2992
lfingers 7.12502
lthumb 11.648 62.9554
rfemur -47.8934 -7.21292 29.9723
rtibia 32.7039
rfoot -3.00119 -0.998055
rtoes 18.0403
lfemur -40.0378 9.39369 -18.5474
ltibia 53.2703
lfoot -12.2965 0.139233
ltoes -26.9361
707
root 2.67474 17.566 -5.74711 22.1983 -19.8603 -1.88122
lowerback 23.2198 -0.327502 -2.16028
upperback 8.0619 -0.938025 1.10917
thorax -4.04217 -0.542903 2.67609
lowerneck -15.9946 0.110889 -7.54887
upperneck 27.0978 1.8673 1.18865
head 11.4024 0.176759 1.98088
rclavicle -1.98785e-015 -1.31198e-014
rhumerus 4.9514 10.8407 -48.053
rradius 90.402
rwrist 18.5846
rhand -38.6394 -1.35052
rfingers 7.12502
rthumb -11.6559 -31.0063
lclavicle -1.98785e-015 -1.31198e-014
lhumerus -19.1758 -22.8875 89.7471
lradius 51.2571
lwrist -19.1721
lhand -14.1906 33.8515
lfingers 7.12502
lthumb 11.9453 63.4906
rfemur -48.9337 -7.35055 30.0519
rtibia 32.6023
rfoot -2.67803 -1.06548
rtoes 18.7158
lfemur -40.0967 9.34365 -18.9424
ltibia 52.0249
lfoot -13.515 0.640924
ltoes -25.1681
708
root 2.70345 17.5552 -5.82203 22.7724 -19.4016 -1.69592
lowerback 23.4117 -0.311327 -2.2928
upperback 8.182 -0.95583 0.973177
thorax -4.00577 -0.552419 2.61176
lowerneck -15.8445 0.123724 -7.40391
upperneck 27.1314 1.89503 0.970415
head 11.3891 0.176765 1.87913
rclavicle -7.35503e-014 3.51849e-014
rhumerus 3.96938 13.2616 -50.4599
rradius 89.5508
rwrist 18.2477
rhand -37.3828 -0.955448
rfingers 7.12502
rthumb -10.4439 -30.676
lclavicle -7.35503e-014 3.51849e-014
lhumerus -19.2768 -22.694 90.3416
lradius 50.0606
lwrist -20.0558
lhand -13.4463 34.1441
lfingers 7.12502
lthumb 12.6629 63.7402
rfemur -49.9389 -7.72104 30.1649
rtibia 32.5421
rfoot -2.30635 -1.0867
rtoes 19.3528
lfemur -40.1552 8.9983 -19.2468
ltibia 50.6253
lfoot -14.7469 1.22136
ltoes -25.734
709
root 2.72823 17.5307 -5.90734 23.4317 -18.7384 -1.64442
lowerback 23.7754 -0.370287 -2.3858
upperback 8.20922 -1.05269 1.0065
thorax -4.14769 -0.597256 2.73373
lowerneck -15.5296 0.19 -7.43844
upperneck 27.1484 2.05158 0.680904
head 11.332 0.20804 1.79748
rclavicle 1.55052e-014 1.15295e-014
rhumerus 3.25625 16.0646 -52.6026
rradius 87.9067
rwrist 18.4166
rhand -36.3602 -0.647641
rfingers 7.12502
rthumb -9.45731 -30.4154
lclavicle 1.55052e-014 1.15295e-014
lhumerus -19.3901 -22.2474 91.0199
lradius 48.8599
lwrist -20.7662
lhand -13.4143 34.6779
lfingers 7.12502
lthumb 12.6938 64.2722
rfemur -51.0557 -7.93922 30.3846
rtibia 32.5479
rfoot -2.04023 -1.31676
rtoes 19.3258
lfemur -40.4519 8.60346 -19.327
ltibia 49.1708
lfoot -15.7993 1.55111
ltoes -25.2168
710
root 2.75101 17.5047 -5.9948 24.2382 -18.117 -1.64734
lowerback 23.9969 -0.339948 -2.45126
upperback 8.19855 -1.02697 1.03568
thorax -4.26847 -0.581694 2.80107
lowerneck -15.2247 0.160821 -7.46723
upperneck 27.2535 2.03329 0.53919
head 11.3157 0.177894 1.74659
rclavicle 1.70955e-014 -6.36111e-015
rhumerus 2.43968 18.7369 -54.7007
rradius 85.9128
rwrist 18.4022
rhand -35.4302 0.127012
rfingers 7.12502
rthumb -8.55995 -29.6795
lclavicle 1.70955e-014 -6.36111e-015
lhumerus -19.4724 -22.1646 91.6347
lradius 47.683
lwrist -21.3976
lhand -14.3661 36.1705
lfingers 7.12502
lthumb 11.776 65.8194
rfemur -52.3217 -8.08777 30.6564
rtibia 32.5935
rfoot -1.87647 -1.5216
rtoes 19.4765
lfemur -41.0382 8.3308 -19.42
ltibia 47.8178
lfoot -16.5372 1.77189
ltoes -23.4906
711
root 2.77473 17.4812 -6.07855 24.9656 -17.4704 -1.41625
lowerback 24.2371 -0.291294 -2.53427
upperback 8.19366 -0.988288 0.966267
thorax -4.39482 -0.558221 2.76816
lowerneck -15.15 0.0542394 -7.50787
upperneck 27.5762 1.90463 0.51597
head 11.4316 0.104266 1.73122
rclavicle -1.90833e-014 2.14687e-014
rhumerus 1.51739 21.1693 -56.8009
rradius 83.7707
rwrist 18.4293
rhand -34.5553 0.703709
rfingers 7.12502
rthumb -7.71561 -29.1355
lclavicle -1.90833e-014 2.14687e-014
lhumerus -19.3597 -22.0537 92.0111
lradius 47.1204
lwrist -20.5534
lhand -19.1455 37.9075
lfingers 7.12502
lthumb 7.16473 67.7662
rfemur -53.5891 -8.28811 30.6504
rtibia 32.6687
rfoot -1.78737 -1.7833
rtoes 19.669
lfemur -41.7537 8.08097 -19.8328
ltibia 46.6662
lfoot -17.004 1.9482
ltoes -21.8021
712
root 2.79721 17.4597 -6.15711 25.6869 -16.7149 -1.15936
lowerback 24.4815 -0.309897 -2.51199
upperback 8.20325 -1.01077 0.903019
thorax -4.50543 -0.563748 2.69775
lowerneck -15.1772 -0.0378806 -7.70261
upperneck 27.8888 1.81232 0.620603
head 11.5602 0.047026 1.7948
rclavicle 1.70955e-014 2.38542e-015
rhumerus 0.691359 23.5754 -58.7006
rradius 81.5185
rwrist 18.6245
rhand -33.8159 0.489249
rfingers 7.12502
rthumb -7.0019 -29.3749
lclavicle 1.70955e-014 2.38542e-015
lhumerus -19.2711 -21.6457 92.2345
lradius 47.0864
lwrist -20.7614
lhand -21.864 39.0368
lfingers 7.12502
lthumb 4.54006 68.9681
rfemur -54.8556 -8.61323 30.6886
rtibia 32.7562
rfoot -1.67359 -1.93782
rtoes 20.0514
lfemur -42.5996 7.96092 -20.3501
ltibia 45.7684
lfoot -17.4124 2.00041
ltoes -20.3665
713
root 2.81585 17.4374 -6.23409 26.5152 -15.9667 -1.05853
lowerback 24.5827 -0.261285 -2.38807
upperback 8.23881 -0.919159 0.882307
thorax -4.52514 -0.516157 2.58054
lowerneck -15.2874 -0.177229 -7.72481
upperneck 28.2255 1.67225 0.534801
head 11.7232 -0.037674 1.75299
rclavicle 2.10712e-014 -1.15295e-014
rhumerus -0.17499 25.8297 -60.5301
rradius 79.0056
rwrist 19.3229
rhand -33.4053 0.476742
rfingers 7.12502
rthumb -6.60549 -29.4002
lclavicle 2.10712e-014 -1.15295e-014
lhumerus -19.2934 -21.1554 92.3708
lradius 47.7764
lwrist -21.8054
lhand -22.5998 38.9857
lfingers 7.12502
lthumb 3.8296 68.931
rfemur -56.1644 -8.94355 30.9702
rtibia 32.8262
rfoot -1.51307 -1.96038
rtoes 20.2715
lfemur -43.6115 8.14661 -20.8535
ltibia 45.0929
lfoot -17.8833 1.96051
ltoes -19.602
714
root 2.83318 17.4101 -6.31177 27.3226 -15.162 -0.930475
lowerback 24.7114 -0.156449 -2.30274
upperback 8.30371 -0.760327 0.938381
thorax -4.52743 -0.438089 2.5503
lowerneck -15.6012 -0.397269 -7.70137
upperneck 28.6493 1.46977 0.318577
head 11.9695 -0.164311 1.64735
rclavicle -5.1684e-015 9.93923e-016
rhumerus -0.89015 27.9028 -62.1359
rradius 76.2927
rwrist 20.1347
rhand -32.6514 0.651225
rfingers 7.12502
rthumb -5.87763 -29.2473
lclavicle -5.1684e-015 9.93923e-016
lhumerus -19.3565 -20.9704 92.5283
lradius 49.1118
lwrist -22.8521
lhand -22.3763 38.1689
lfingers 7.12502
lthumb 4.04539 68.1103
rfemur -57.3952 -9.12871 31.102
rtibia 32.8294
rfoot -1.3588 -2.16893
rtoes 19.9168
lfemur -44.7446 8.29114 -21.3813
ltibia 44.6125
lfoot -18.2798 1.9311
ltoes -18.5946
